# xmcd
#
# Track frame offsets: 
#        150
#        17817
#        42758
#        57390
#        76948
#        99965
#        116593
#        134877
#        160814
#        179794
#        209279
#
# Disc length: 3072 seconds
#
# Revision: 0
# Processed by: cddbd v1.5.2PL0 Copyright (c) Steve Scherf et al.
# Submitted via: ExactAudioCopy v0.99pb5
#
DISCID=970bfe0b
DTITLE=Various Artist - ALILA INDEPENDENT SELECTION VOL.01
DYEAR=2007
DGENRE=House
TTITLE0=Ape On The Roof - Overture
TTITLE1=Parkdrive - Shine A Light
TTITLE2=Tompi - I Will Teach You How To Dance
TTITLE3=Made J. - Save Me
TTITLE4=Cherry Bombshell - Kesepian Semu
TTITLE5=Everybody Loves Irene - Memento Mori
TTITLE6=Sajama Cut - Less Afraid
TTITLE7=Tika - Feber Fairytale
TTITLE8=Homogenic - Yang Terpisah
TTITLE9=Viky Sianipar - Sing Sing So
TTITLE10=Ape On The Roof - The Welder (Bonus Track)
EXTD=WWW.ALILAHOTELS.COM\n
EXTT0=
EXTT1=
EXTT2=
EXTT3=
EXTT4=
EXTT5=
EXTT6=
EXTT7=
EXTT8=
EXTT9=
EXTT10=
PLAYORDER=
